<svg width="32" height="32" viewBox="0 0 32 32" fill="none" xmlns="http://www.w3.org/2000/svg">
  <rect width="32" height="32" rx="6" fill="#0c0c14"/>
  <rect x="4" y="4" width="4" height="4" rx="0.8" fill="#34d399"/>
  <rect x="4" y="9.5" width="4" height="4" rx="0.8" fill="#34d399"/>
  <rect x="4" y="15" width="4" height="4" rx="0.8" fill="#34d399"/>
  <rect x="4" y="20.5" width="4" height="4" rx="0.8" fill="#34d399"/>
  <rect x="9.5" y="4" width="4" height="4" rx="0.8" fill="#6ee7b7"/>
  <rect x="15" y="4" width="4" height="4" rx="0.8" fill="#34d399"/>
  <rect x="15" y="9.5" width="4" height="4" rx="0.8" fill="#10b981"/>
  <rect x="15" y="15" width="4" height="4" rx="0.8" fill="#34d399"/>
  <rect x="15" y="20.5" width="4" height="4" rx="0.8" fill="#34d399"/>
  <rect x="20.5" y="4" width="4" height="4" rx="0.8" fill="#6ee7b7"/>
  <rect x="26" y="4" width="4" height="4" rx="0.8" fill="#34d399"/>
  <rect x="26" y="9.5" width="4" height="4" rx="0.8" fill="#34d399"/>
  <rect x="26" y="15" width="4" height="4" rx="0.8" fill="#34d399"/>
  <rect x="26" y="20.5" width="4" height="4" rx="0.8" fill="#34d399"/>
</svg>
