<svg width="230" height="54" viewBox="0 0 230 54" fill="none" xmlns="http://www.w3.org/2000/svg">
  <rect x="0" y="0" width="12" height="12" rx="2" fill="#34d399"/>
  <rect x="0" y="14" width="12" height="12" rx="2" fill="#34d399"/>
  <rect x="0" y="28" width="12" height="12" rx="2" fill="#34d399"/>
  <rect x="0" y="42" width="12" height="12" rx="2" fill="#34d399"/>
  <rect x="14" y="0" width="12" height="12" rx="2" fill="#6ee7b7"/>
  <rect x="28" y="0" width="12" height="12" rx="2" fill="#34d399"/>
  <rect x="28" y="14" width="12" height="12" rx="2" fill="#10b981"/>
  <rect x="28" y="28" width="12" height="12" rx="2" fill="#34d399"/>
  <rect x="28" y="42" width="12" height="12" rx="2" fill="#34d399"/>
  <rect x="42" y="0" width="12" height="12" rx="2" fill="#6ee7b7"/>
  <rect x="56" y="0" width="12" height="12" rx="2" fill="#34d399"/>
  <rect x="56" y="14" width="12" height="12" rx="2" fill="#34d399"/>
  <rect x="56" y="28" width="12" height="12" rx="2" fill="#34d399"/>
  <rect x="56" y="42" width="12" height="12" rx="2" fill="#34d399"/>
  <text x="82" y="26" style="font-family: system-ui, sans-serif; font-size: 38px; font-weight: 800; letter-spacing: -1px;" fill="#e2e8f0">Mod</text>
  <text x="176" y="26" style="font-family: system-ui, sans-serif; font-size: 38px; font-weight: 800; letter-spacing: -1px;" fill="#34d399">VF</text>
  <text x="82" y="48" style="font-family: system-ui, sans-serif; font-size: 11px; font-weight: 400; letter-spacing: 3px;" fill="#64748b">TRADUCTION MINECRAFT</text>
</svg>
